<?xml version="1.0" standalone="no"?>
<!DOCTYPE svg PUBLIC "-//W3C//DTD SVG 1.1//EN" "http://www.w3.org/Graphics/SVG/1.1/DTD/svg11.dtd" >
<svg xmlns="http://www.w3.org/2000/svg" xmlns:xlink="http://www.w3.org/1999/xlink" version="1.1">
<metadata></metadata>
<defs>
<font id="freestyle_scriptregular" horiz-adv-x="524" >
<font-face units-per-em="2048" ascent="1638" descent="-410" />
<missing-glyph horiz-adv-x="332" />
<glyph horiz-adv-x="0" />
<glyph unicode="&#xd;" horiz-adv-x="0" />
<glyph unicode=" "  horiz-adv-x="332" />
<glyph unicode="&#x09;" horiz-adv-x="332" />
<glyph unicode="&#xa0;" horiz-adv-x="332" />
<glyph unicode="!" horiz-adv-x="563" d="M-43 0q1 41 15 84q12 34 33 55t42 21q24 0 38.5 -18t14.5 -42q0 -49 -28 -102.5t-72 -53.5q-8 0 -15 2.5t-9 2.5q-18 12 -19 51zM100 336q6 36 35 80q44 72 120.5 203t145 252t123 219t132.5 237q9 18 19.5 38.5t24 35t31.5 14.5q49 0 49 -55q0 -44 -32 -108 q-72 -134 -134.5 -245t-105.5 -184.5t-136.5 -232t-162.5 -274.5q-25 -56 -61 -56q-21 0 -34.5 24t-13.5 52z" />
<glyph unicode="#" horiz-adv-x="1083" d="M-16 512q0 26 12 33q16 9 196 23h31q28 0 54.5 -2.5t50.5 -2.5q6 12 15 39t17 45q-28 0 -40 -4h-76q-19 0 -59.5 -1t-59.5 -1q-38 0 -53 11q-16 10 -31 44q6 30 42.5 41t100.5 13t68 2h37q21 0 53 -2t58 -2q24 56 53 125t47 108q60 115 104 115q24 0 24 -31 q0 -11 -16 -61q-28 -51 -45 -89.5t-41 -101.5t-26 -65q16 -2 46 -4t46 -4q86 206 104 241q54 115 100 115q28 0 28 -29q0 -17 -19 -63q-25 -48 -45 -93t-41 -99t-31 -77q148 -12 192 -18q54 -11 89 -25.5t35 -48.5q0 -21 -48 -27q-8 4 -24 4q-146 20 -280 23 q-6 -16 -15 -43.5t-17 -46.5q110 -9 195 -21q58 -11 91.5 -24.5t33.5 -46.5q0 -16 -16 -20.5t-56 -4.5q-100 14 -280 29q-12 -39 -34 -117t-37.5 -128t-37.5 -104q-10 -31 -24.5 -44.5t-46.5 -28.5q-18 5 -26 20t-10 17q6 60 24 121t48 146q32 85 44 122h-88 q-10 -34 -44.5 -126.5t-52.5 -158.5q-17 -64 -32 -93t-58 -50q-20 4 -27.5 21t-9.5 18q7 58 24.5 120.5t41 126.5t51.5 138h-101q-26 0 -66 -4.5t-62 -4.5q-80 0 -80 56zM432 559h88q32 84 33 88q-14 0 -42 2.5t-46 2.5q-21 -44 -33 -93z" />
<glyph unicode="$" horiz-adv-x="936" d="M-43 192q0 50 28.5 105t75.5 91t99 36q14 0 23 -9t9 -24q-8 -8 -16 -17q-8 -10 -16 -18q-72 -60 -80 -137q3 -38 24 -68q22 -31 44 -35l237 437q-95 113 -101 227q2 94 62.5 172t162 126t226.5 58q18 26 36.5 54t28.5 38q10 9 24 9q36 0 36 -33q0 -26 -28 -68 q73 -6 114 -48t41 -105q0 -60 -47.5 -122.5t-146.5 -112t-244 -68.5l-57 -104q20 -26 37 -50t33 -48.5t31 -55t23 -62.5q4 -24 4 -38q0 -74 -44 -150t-132 -126t-212 -50h-56q-16 -36 -25 -56t-19 -30t-24 -10q-38 0 -44 36q8 8 8 17q22 49 28 67q-72 22 -107.5 69 t-35.5 103zM223 96q13 0 49 -8q60 2 115.5 33t90 82t34.5 113q0 76 -76 163zM400 764q6 -66 40 -117l29 49q-11 11 -17 29q8 59 72 59l144 244q-110 -15 -188 -91t-80 -173zM620 796q52 6 116 30t110.5 65.5t46.5 91.5q0 32 -24.5 48.5t-59.5 16.5q-7 0 -20 -2t-17 -2z" />
<glyph unicode="%" horiz-adv-x="1075" d="M56 20q6 12 14 35.5t14 36.5q54 100 158 235t212 260t269.5 306t216.5 247q9 11 41 53t46.5 54.5t33.5 12.5q20 0 39 -31v-21q0 -12 -8 -36q-82 -131 -180.5 -240.5t-269 -284t-275.5 -303.5q-105 -128 -179 -276q-50 -84 -92 -84q-34 0 -40 36zM60 744q16 227 224 411 q85 82 136 82q36 0 36 -45q68 -30 68 -125q0 -81 -51.5 -187.5t-128 -186t-144.5 -89.5q-76 0 -106 36t-34 104zM152 756q8 -59 28 -68l25 -8q35 2 79 44.5t83 107t57 128.5q12 46 12 88q0 88 -68 88q-4 0 -44 -39.5t-83 -97t-65 -119.5q-18 -48 -24 -124zM572 168 q16 220 229 412q82 80 135 80q37 0 37 -44q67 -30 67 -124q0 -81 -52 -188.5t-128 -186.5t-143 -89q-78 0 -110 36q-31 37 -35 104zM664 176q6 -36 15.5 -49t37.5 -23q37 2 82 45t83 108t54 128t16 90q0 32 -16.5 58t-46.5 26h-9q-92 -68 -150 -171q-56 -102 -66 -212z" />
<glyph unicode="&#x26;" horiz-adv-x="1356" d="M68 328q28 342 420 508q0 48 -9 124q8 158 79.5 275t217.5 117q64 0 110 -48t46 -128q0 -90 -45 -158t-106 -113t-165 -109l80 -448q98 140 119 264q-3 1 -42 2.5t-62 13.5t-23 48q0 26 18 45q20 19 46 19q152 0 229 12q10 1 75 8.5t103 7.5q125 0 125 -76q0 -48 -51 -51 q-19 15 -101 15q-108 0 -216 -32q-13 -92 -66.5 -207t-114.5 -181q33 -61 69 -91.5t95 -36.5q14 2 61.5 9.5t75.5 7.5q52 0 52 -41q0 -57 -67 -78.5t-141 -21.5q-154 0 -237 145q-121 -133 -271 -133q-90 0 -158 45.5t-106 121t-40 165.5zM200 356q7 -94 55.5 -156 t135.5 -69q66 2 125.5 36.5t83.5 68.5q-28 58 -45 142t-33 209t-22 153q-158 -78 -226 -180q-70 -102 -74 -204zM604 981q4 -33 4 -92q200 111 201 247q0 38 -18.5 61t-46.5 23q-56 0 -85.5 -38t-38 -80.5t-16.5 -120.5z" />
<glyph unicode="'" horiz-adv-x="315" d="M352 1061q0 27 35 59q66 54 107 130q42 74 55 146q7 80 71 80q52 0 52 -67q-3 -77 -67.5 -183t-135.5 -169q-51 -45 -73 -45q-14 0 -29 17t-15 32z" />
<glyph unicode="(" horiz-adv-x="772" d="M131 -219q0 24 6.5 68.5t6.5 70.5q22 237 89 459.5t176 426.5t256 384t331 338q32 32 65 32q8 0 19.5 -10t11.5 -22t-8 -20q-5 -16 -27 -36q-166 -154 -301.5 -332t-237.5 -373.5t-172 -406t-110 -440.5q-8 -70 -13 -96q-6 -42 -17.5 -61t-37.5 -19q-16 0 -26.5 10.5 t-10.5 26.5z" />
<glyph unicode=")" horiz-adv-x="772" d="M-156 -219q0 3 2 9q2 8 2 10q16 24 27 36q178 163 318.5 351.5t244 397.5t172 434.5t102.5 465.5q4 42 15 60.5t37 18.5q36 -6 41 -40q0 -25 -6.5 -69.5t-6.5 -66.5q-20 -235 -87.5 -458.5t-177.5 -427.5t-257 -385q-148 -181 -330 -336q-33 -33 -61 -33q-35 0 -35 33z " />
<glyph unicode="*" horiz-adv-x="893" d="M356 1288q18 43 48 43q66 -1 176 -111q20 56 20 128q8 84 52 84q26 0 41 -21t15 -47q-2 -38 -48 -180q1 0 47.5 7.5t64.5 12.5q12 3 45 19t55 16q16 0 21 -2q19 -8 19 -33q0 -44 -65 -70t-120 -26q-3 0 -18 2t-29 2q12 -44 58 -95t58 -73q8 -8 9 -28q0 -26 -41 -36 q-96 14 -164 187q-52 -26 -84 -80q-34 -54 -52 -76t-44 -22q-32 5 -35 43q8 60 49.5 115t97.5 93q-80 68 -100 80q-38 20 -56 34q-18 13 -20 34z" />
<glyph unicode="+" horiz-adv-x="856" d="M20 391q6 36 32 52.5t62 22.5l78 13q112 17 152 21q0 78 24 272q8 42 19 61t37 19q47 0 47 -51q0 -50 -10.5 -133.5t-12.5 -118.5q4 -16 4 -45q116 0 279 -20q41 -6 60.5 -18.5t19.5 -41.5q0 -24 -10.5 -34t-36.5 -13q-8 4 -16 4q-170 19 -248 19h-44v-228 q0 -53 -10 -78.5t-50 -46.5q-23 6 -34 31.5t-13.5 57.5t-4.5 60q8 170 8 195q-37 -4 -134.5 -23.5t-145.5 -19.5q-42 0 -48 29q0 10 -4 14z" />
<glyph unicode="," horiz-adv-x="448" d="M-144 -264q0 26 36 55q68 59 106 133t49 144q15 76 61 84q64 0 64 -68q-3 -80 -66 -186q-62 -104 -134 -170q-40 -38 -72 -44q-18 0 -31 16t-13 36z" />
<glyph unicode="-" d="M0 396v116h524v-116h-524z" />
<glyph unicode="." horiz-adv-x="448" d="M68 0q6 42 20 84q33 76 76 76q24 0 37.5 -18t13.5 -42q0 -52 -28 -104q-29 -52 -75 -52q-4 0 -10.5 2.5t-9.5 2.5q-18 13 -24 51z" />
<glyph unicode="/" horiz-adv-x="692" d="M-180 -92q0 27 49 100q40 72 144 215t250.5 333t284.5 368t192 252q84 120 153 192q44 47 88 47q21 0 42 -18.5t21 -40.5t-36 -60q-26 -24 -109 -120q-120 -141 -295.5 -364.5t-349.5 -459.5t-278 -395q-12 -20 -24 -42t-26 -38.5t-30 -16.5q-22 0 -49 14t-27 34z" />
<glyph unicode="0" horiz-adv-x="663" d="M12 272q16 366 352 680q150 144 216 144q54 0 53 -72q111 -46 111 -205q0 -102 -48 -229.5t-125.5 -246t-168 -201t-170.5 -99.5q-34 -4 -44 -4q-88 0 -130 64.5t-46 168.5zM135 297q4 -64 22.5 -97.5t70.5 -47.5q62 2 138 75t141.5 189t96.5 231q24 85 24 149 q0 58 -30 105t-86 47h-16q-6 -4 -44.5 -39t-90.5 -94.5t-100.5 -137t-80.5 -165.5q-38 -112 -45 -215z" />
<glyph unicode="1" horiz-adv-x="508" d="M37 112q5 34 16 65t27 68t28 62q59 122 124 246t124.5 227t95.5 144l-4 4q-18 -22 -151 -100q-104 -48 -129 -52q-33 8 -33 48q0 28 17.5 42t54.5 29t45 21q76 42 171 102t140 74h13q22 0 37 -16t15 -40q0 -16 -16 -49q-68 -100 -128 -204.5t-121 -221.5t-111 -218 t-117 -235q-16 -48 -51 -52q-24 8 -33 20q-9 10 -14 36z" />
<glyph unicode="2" horiz-adv-x="739" d="M-68 112q0 38 40 80q109 112 252.5 229t367.5 287q112 86 112 168q0 41 -23 66.5t-73 25.5q-46 -2 -93 -25t-91 -57t-76 -58q-16 -16 -28 -17q-16 0 -28 16t-12 33q6 26 44 64q56 54 146 100.5t173 46.5q51 0 93 -19.5t67 -57.5q25 -36 25 -86q0 -60 -34 -126 q-34 -64 -86 -110q-62 -55 -146.5 -118t-168 -124.5t-160 -127t-141.5 -138.5q178 51 304 51q74 0 111.5 -18t37.5 -62q-5 -34 -53 -43q-8 4 -17 4q-37 16 -103 16q-54 0 -105 -11t-131.5 -35t-131.5 -33q-72 5 -72 79z" />
<glyph unicode="3" horiz-adv-x="671" d="M-43 223q0 129 84 129q45 0 55 -36q0 -8 -8 -52q2 -2 3 -6t1 -6q0 -41 24 -70q24 -30 80 -30q51 3 112.5 55.5t103.5 120.5q58 84 57 176q0 51 -27.5 85.5t-77.5 34.5q-19 0 -48 -8q-30 -8 -32 -8q-19 10 -22.5 15t-9.5 29q8 39 37 59t84 38t71 27q56 24 85.5 62t29.5 74 q1 62 -63 61q-30 0 -55.5 -9.5t-63 -30.5t-60.5 -31t-49 -13q-7 4 -16.5 7.5t-15.5 9.5t-8 18q10 50 61 87t117 57t118 20q70 0 121 -46t51 -114q0 -74 -59 -143t-149 -105q50 -12 77 -54t27 -106q0 -108 -62 -220.5t-164 -186t-210 -76.5q-80 4 -137 56t-62 130z" />
<glyph unicode="4" horiz-adv-x="739" d="M20 471q0 34 10 51q10 18 42 50q254 263 428 411q90 72 144 106.5t91 34.5q26 0 43.5 -18t17.5 -41q0 -19 -9 -38.5t-28 -50t-28 -44.5q-13 -22 -40 -73.5t-48 -86.5l-94 -172q16 0 42 2q25 2 37 2q76 0 76 -45q0 -67 -88 -67q-72 0 -124 -4q-40 -84 -68 -144t-53 -120 t-43 -124q-8 -35 -19 -51t-41 -16t-44.5 15.5t-14.5 39.5q0 60 21.5 122t54.5 129t67 132q-38 -2 -104 -14.5t-100 -24.5q-11 -4 -33.5 -12t-30.5 -10t-20 -2q-20 0 -32 20t-12 43zM180 553q40 4 228 31q29 60 68.5 127t79.5 131t72 114l-4 4q-61 -34 -130.5 -90.5 t-144.5 -132t-169 -184.5z" />
<glyph unicode="5" horiz-adv-x="692" d="M-24 244q0 68 26 116t66 48q44 0 44 -36q-3 -10 -5.5 -20t-6.5 -20q0 -30 -4 -52q8 -114 76 -128q16 0 24 -4q60 3 130 55t118 129q64 116 64 192q0 51 -28 80q-26 29 -76 29q-48 0 -119 -34.5t-97 -39.5q-7 7 -21.5 18t-23 23t-12.5 33q0 52 80 162.5t153 172.5 q-18 18 -24 48q7 35 45 41q232 31 332 31q102 0 102 -64q-1 -43 -39 -43l-268 -17q-105 -90 -160.5 -160t-71.5 -108q86 38 168 39q82 0 135.5 -46.5t53.5 -129.5q-1 -126 -101 -266q-68 -96 -178 -176t-223 -80q-53 5 -89 36t-53 77t-17 94z" />
<glyph unicode="6" horiz-adv-x="704" d="M-16 289q0 136 80 270.5t200 249.5q81 76 212 162q132 86 176 86q40 0 40 -41q0 -13 -8 -23t-21 -18.5t-22 -14.5q-96 -54 -168.5 -108t-124.5 -104t-92 -96l8 -5q118 61 215 61q168 0 168 -168q0 -114 -66.5 -230t-173.5 -193t-219 -84q-96 0 -150 74t-54 182zM100 316 q0 -64 30 -118q30 -52 85 -58q73 0 145 62.5t118 152.5t46 161q0 104 -88 104q-65 0 -127.5 -26.5t-140.5 -73.5q-62 -84 -68 -204z" />
<glyph unicode="7" horiz-adv-x="608" d="M-8 60q0 54 68 163q131 222 278.5 403.5t294.5 337.5l-5 4q-45 -17 -180.5 -38.5t-211.5 -21.5q-72 0 -80 44q2 3 11 25.5t18.5 30.5t29.5 8q211 0 393 45q14 2 48 10.5t48 8.5q12 0 21 -2.5t10 -2.5q29 -12 29 -55q0 -47 -29 -76q-126 -132 -243.5 -279.5t-208.5 -286 t-152 -257.5q-28 -48 -45.5 -69.5t-52.5 -31.5q-12 5 -20.5 9.5t-14.5 11.5t-6 19z" />
<glyph unicode="8" horiz-adv-x="692" d="M-60 244q0 99 62 184.5t145 146t197 129.5q-90 84 -96 164q8 32 8 44q16 81 94 139q79 57 195 69q86 0 138 -44q52 -46 52 -116q0 -60 -32 -109t-76 -84t-111 -79q104 -104 104 -223q0 -91 -61 -181q-68 -103 -187 -170t-243 -67q-84 10 -136.5 63.5t-52.5 133.5zM76 260 q10 -98 133 -112q75 2 141.5 47t106 117.5t39.5 148.5q0 100 -80 172q-146 -82 -239 -167.5t-101 -205.5zM372 899q4 -3 5 -15q7 -36 71 -116q160 88 160 180q0 36 -24.5 58t-63.5 22q-52 0 -98 -39t-50 -90z" />
<glyph unicode="9" horiz-adv-x="659" d="M80 633q6 167 143 327q72 82 158.5 127t173.5 45q88 -3 134 -59.5t46 -152.5q0 -142 -95.5 -330t-262.5 -367q-101 -102 -145 -142t-76 -40q-27 0 -35 39q8 16 8 20q6 14 23.5 30t57.5 50q38 34 70 68q142 148 195 268q-122 -70 -223 -76q-151 10 -172 193zM196 664 q0 -38 11 -60t32 -32t58 -19q59 2 130.5 30.5t112.5 57.5q28 45 50 119t22 139q0 137 -116 137q-75 -6 -144.5 -65.5t-112.5 -145.5q-43 -85 -43 -161z" />
<glyph unicode=":" horiz-adv-x="448" d="M24 0q10 56 19 84q12 34 34.5 53t43.5 19q22 0 36.5 -16t14.5 -40q0 -53 -28 -104.5t-76 -51.5q-4 0 -11 2.5t-10 2.5q-19 14 -23 51zM232 520q8 52 20 88q34 76 76 76q24 0 38 -20q15 -22 15 -44q0 -56 -27.5 -103.5t-77.5 -51.5q-12 6 -20 6q-20 12 -24 49z" />
<glyph unicode=";" horiz-adv-x="448" d="M-144 -260q0 27 36 55q66 58 104.5 132.5t50.5 144.5q15 76 61 84q64 0 64 -68q-2 -53 -33 -120.5t-78 -131t-89 -100.5q-40 -43 -72 -43q-18 0 -31 14t-13 33zM236 520q6 46 20 88q26 76 76 76q23 0 36 -18t13 -42q0 -58 -25.5 -106.5t-75.5 -52.5q-12 6 -20 6 q-18 12 -24 49z" />
<glyph unicode="=" horiz-adv-x="1016" d="M24 272q6 44 37 64t73 26t98 15q167 27 323 27q57 0 115 -4t116 -10.5t82 -8.5q47 -6 71.5 -21.5t24.5 -47.5q0 -50 -52 -56q-8 4 -23 4q-178 20 -289 20q-166 0 -456 -48q-12 -2 -30 -7.5t-30 -5.5q-22 0 -31.5 6.5t-15 18.5t-13.5 28zM24 508q6 44 36 63.5t72 26 t96 14.5q162 28 325 29q95 -1 315 -25q50 -7 73 -20.5t23 -46.5q0 -51 -52 -57q-8 4 -23 4q-135 20 -293 20q-148 0 -452 -45q-12 -1 -30 -8t-30 -7q-28 0 -37 10t-23 42z" />
<glyph unicode="?" horiz-adv-x="792" d="M152 0q10 55 20 84q12 34 33.5 53t42.5 19q24 0 36 -16q13 -16 13 -40q0 -56 -26.5 -106t-78.5 -50q-4 0 -11 2.5t-9 2.5q-16 16 -20 51zM252 424q2 21 32 92q34 82 92.5 151t129 127.5t150 113t163.5 112.5q53 36 91 92t38 112q0 42 -32 70.5t-76 28.5q-94 0 -173 -48.5 t-163 -129.5q-52 -49 -70 -64t-38 -16q-22 5 -32 19q0 8 -8 16q3 46 57.5 109t135.5 112q140 88 266 88q90 0 157.5 -51.5t67.5 -141.5q0 -81 -50.5 -149.5t-133.5 -138.5q-42 -36 -127 -98.5t-126.5 -94t-90.5 -82.5t-84 -113q-10 -14 -32 -60.5t-42 -70.5t-55 -24 q-20 0 -26.5 5.5t-10.5 16.5t-10 17z" />
<glyph unicode="@" horiz-adv-x="1388" d="M0 708q0 192 95 356t258 260t355 96q146 0 260 -46t192.5 -131t119.5 -205t41 -266q0 -156 -58.5 -268.5t-151.5 -170.5q-93 -59 -195 -61q-38 8 -60 8q-61 0 -91 59t-34 130q4 21 4 67l-4 4q-51 -107 -115 -162.5t-124 -57.5q-116 10 -132 168q2 89 50.5 209t127.5 229 q78 110 162 166q80 54 160 53q58 0 90.5 -26.5t32.5 -74.5q-1 -38 -19 -71q18 -17 19 -53q0 -30 -35 -80q-112 -180 -112 -316q0 -121 76 -137q24 -3 52 -10q67 2 125.5 55.5t92.5 144t34 195.5q0 166 -57 289.5t-171 189.5q-116 66 -280 66q-162 0 -302.5 -82t-223 -222.5 t-82.5 -304.5t83 -304t223 -222t302 -82q160 0 265 60q15 12 39 12q22 0 37.5 -15t15.5 -36q-1 -24 -25 -41q-136 -84 -332 -84q-193 0 -355.5 96t-257.5 260t-95 356zM488 532q6 -60 40 -63q86 1 189 191q18 34 60.5 117t69 126.5t46.5 56.5q-24 52 -74 52q-52 0 -91.5 -35 t-86.5 -97q-50 -62 -100.5 -171t-52.5 -177z" />
<glyph unicode="A" horiz-adv-x="964" d="M-92 16q0 30 14 63.5t36 69t42 66.5q24 40 87 140t85 137q-20 -4 -72 -26t-84 -30q-16 8 -20 8q-24 12 -24 48q4 24 13 34t48 27q26 10 115.5 41.5t123.5 46.5q80 110 180 236.5t186.5 226.5t165 182t132.5 125q57 41 96 41q24 0 38 -20t14 -44q0 -48 -23 -100 q-111 -292 -153 -483q80 0 100 -4q1 0 1 1q31 0 31 -50v-21q-10 -16 -20 -21.5t-28 -9.5t-28 -8h-40q-30 0 -48 -4q-23 -90 -45.5 -204.5t-39.5 -218.5q-17 -105 -23 -161q0 -20 -4 -36q4 -20 4 -48q-6 -44 -51 -44q-28 0 -40.5 15.5t-20.5 48.5t-9 36q5 12 5 40 q0 55 15.5 152t39.5 214q25 118 37 182l-400 -111q-43 -68 -83.5 -132.5t-57 -92.5t-67.5 -111t-85 -137q-16 -36 -41 -68t-53 -32q-15 0 -32 11t-17 25zM440 696l336 84q24 90 74 235t82 237q-48 -18 -117 -93q-52 -53 -121.5 -137t-136.5 -171t-117 -155z" />
<glyph unicode="B" horiz-adv-x="968" d="M-72 41q0 28 8 60.5t20.5 66.5t32 76.5t23.5 54.5q228 507 541 973q-46 -7 -121 -44.5t-92 -43.5q-2 2 -15.5 11.5t-19.5 18t-6 25.5q0 31 33 53q40 26 137 66q97 42 219 70q59 16 123 16q67 0 125 -22.5t93.5 -69t35.5 -113.5q0 -105 -71.5 -188t-177.5 -138t-212 -85 q69 -20 121.5 -64.5t81.5 -108.5t29 -139q0 -141 -80 -262.5t-210 -191.5t-270 -70q-112 0 -229 55q-1 -2 -9 -30.5t-20 -43t-38 -14.5q-21 10 -36.5 33.5t-15.5 48.5zM76 135q75 -42 172 -47q120 6 231 69.5t178.5 169t67.5 228.5q0 91 -61.5 144t-155.5 53q-64 0 -88 -8 q-29 4 -39 36q-52 -82 -95.5 -161.5t-94.5 -194t-115 -289.5zM444 893q88 10 215 63.5t218 129.5t91 155q0 11 -4 27q-16 72 -140 72q-58 0 -164 -32q16 -6 16 -28q0 -24 -24 -65t-95 -146.5t-113 -175.5z" />
<glyph unicode="C" horiz-adv-x="903" d="M8 232q8 198 140 444q40 75 101 168.5t131 184.5t140 167q104 112 207 178t185 66q64 0 102 -43t38 -109q0 -61 -26.5 -137.5t-77 -154.5t-116.5 -144q-40 -44 -88 -51q-26 6 -36 15t-20 36q6 38 56 84q72 56 126 121.5t80.5 124t26.5 104.5q0 62 -57 62q-22 0 -36 -4 q-144 -54 -331 -273q-204 -233 -293 -428q-114 -240 -120 -387q3 -80 41.5 -132t111.5 -64q99 6 231 124q86 76 216 252q8 12 21.5 37t25 36t24.5 11q21 0 21 -28q0 -13 -21 -56q-269 -473 -571 -473q-110 0 -169 77.5t-63 191.5z" />
<glyph unicode="D" horiz-adv-x="995" d="M-8 41q0 48 17 105.5t55 156.5q42 114 95 234.5t108 233t114.5 226t110.5 207.5q-18 -8 -56 -38q-38 -32 -64 -38q-30 8 -48 44q25 92 180 168q118 69 260 69h4q94 0 166 -40.5t113 -113.5t41 -163q0 -207 -111 -414t-281 -389q-76 -82 -169.5 -157.5t-198 -127.5 t-207.5 -60q-55 0 -92 27t-37 70zM125 96q7 -39 35 -45h2q71 0 174 65q128 82 269 240t244 344t124 348q0 12 2 38q2 24 2 34q0 84 -51.5 136t-133.5 52q-90 0 -196 -56q28 -14 28 -36q0 -12 -7 -27.5t-23 -44t-35 -64.5q-24 -48 -111.5 -220t-130 -259t-86.5 -189 q-43 -102 -83 -216q-15 -54 -23 -100z" />
<glyph unicode="E" horiz-adv-x="852" d="M-20 108q0 24 12 60q53 156 120.5 303t143.5 285t154 262t166 254q-15 0 -27.5 17t-16.5 38q8 25 8 29q9 17 35.5 26t88.5 23q237 59 491 59q113 0 113 -55q0 -32 -27 -46.5t-65 -14.5q-126 0 -251 -14t-233 -42q8 -16 8 -28q0 -14 -31 -58t-45 -66q-8 -12 -63 -102 t-109 -170q38 4 114.5 18.5t131 22t111.5 7.5q75 0 75 -48q0 -27 -11.5 -41t-31 -18.5t-39.5 -5.5t-50 -2q-180 -5 -371 -57q-61 -100 -138 -260t-122 -300q300 104 434 109h4q129 0 129 -65q0 -22 -11 -29.5t-35 -11.5q-26 -4 -34 -7q-176 0 -348 -59q-60 -22 -118 -54.5 t-78 -38.5q-38 0 -61 24t-23 56z" />
<glyph unicode="F" horiz-adv-x="848" d="M-24 125q4 32 40 127q42 111 102 232t130 245.5t168.5 290.5t142.5 240q-29 0 -35 36q8 51 60 68q64 24 171.5 47t210 36t146.5 13q131 0 131 -55q0 -28 -17.5 -45.5t-45.5 -19.5q-24 8 -88 8q-82 0 -156 -15t-215 -49q-44 -56 -104.5 -143t-105.5 -162.5t-67 -118.5 q162 38 304 43q100 -1 104 -35q0 -42 -16 -54.5t-64 -12.5q-182 -7 -408 -76q-100 -166 -233 -516q-2 -5 -21.5 -69t-33.5 -83.5t-39 -19.5q-27 3 -44 28t-17 60z" />
<glyph unicode="G" horiz-adv-x="864" d="M24 348q2 102 51.5 222t122.5 234q72 114 146 204q127 163 298.5 307.5t301.5 144.5q84 0 120 -58q36 -56 36 -134q-6 -72 -42 -152t-94 -148q-170 -200 -252 -204q-18 4 -27 9t-13 14t-12 22q5 31 57 71q94 70 175.5 170t115.5 202q12 30 12 61q0 26 -16 43 q-18 16 -44 16q-40 0 -88 -28q-150 -73 -327 -279q-172 -192 -285 -392q-114 -201 -114 -317q0 -26 6 -44q28 -86 104 -93q56 2 123 41.5t135 95.5t106 88q2 2 24 22t38 31t30 11q16 0 30 -17t14 -35q0 -42 -48 -100q-42 -58 -100 -160t-113 -215t-87 -196q-32 -74 -44 -129 q-20 -88 -71 -88q-55 0 -61 64q10 98 50 191t114 222t104 195h-8q-156 -108 -283 -128q-161 10 -185 236z" />
<glyph unicode="H" horiz-adv-x="991" d="M-16 43q0 80 25 152.5t76 182t71 171.5q-84 -16 -100 -33q-22 6 -23 52q0 34 31.5 54.5t88.5 38t70 23.5q44 82 150.5 274t164.5 300q56 108 90 186q34 80 89 80q14 0 26.5 -17t12.5 -43v-16q-16 -63 -63 -157.5t-114 -209.5t-121 -208t-77 -142q303 90 447 125 q58 96 90 149t70 118t82 137t54 92q3 6 15.5 28.5t23.5 38.5t25 27q14 10 32 10q20 0 34 -15t14 -40q0 -24 -18.5 -62t-68.5 -120q-51 -83 -53 -87q-122 -206 -160 -252q28 0 44 -4q46 0 65 -6q19 -4 19 -30q0 -60 -88 -68q-12 0 -44 -4t-52 -4q-90 -157 -178 -358 q-88 -200 -118 -338q-18 -72 -48 -72q-52 0 -72 88q16 81 44 161.5t55 140.5t81 173t80 172q-95 -28 -249.5 -75t-199.5 -60q-30 -58 -73.5 -153.5t-83.5 -202.5t-54 -193q-6 -42 -17 -61t-38 -19q-57 0 -57 76z" />
<glyph unicode="I" horiz-adv-x="487" d="M-4 104q0 12 2 30t2 22q50 224 219 512q38 63 112.5 198.5t123.5 217.5t111 169t138 162q12 13 27 13q18 0 35 -16q18 -18 18 -36q0 -38 -59 -124q-182 -237 -324 -473.5t-233 -479.5q-28 -69 -46 -144t-29 -96.5t-42 -21.5q-25 0 -40 20.5t-15 46.5z" />
<glyph unicode="J" horiz-adv-x="919" d="M-16 284q0 101 33 206.5t91 198.5q60 93 136 163q48 47 76 47q13 0 22.5 -9.5t9.5 -21.5q0 -20 -53 -92q-193 -246 -199 -460q3 -74 35.5 -120t83.5 -48q74 0 163.5 94.5t153.5 226.5q15 30 93.5 190.5t132.5 274.5t96 201t90 186q-42 -8 -104.5 -26.5t-114 -33.5 t-96.5 -22q-13 0 -21 -2q-48 4 -53 43q-1 58 49 72q298 100 545 100q89 0 128.5 -12t39.5 -48v-4q0 -29 -26.5 -39.5t-94.5 -12.5q-36 4 -125 4q-114 -288 -212 -508q-98 -218 -230 -420q-247 -368 -469 -369q-88 3 -134 70t-46 171z" />
<glyph unicode="K" horiz-adv-x="999" d="M-41 64q11 99 92 272.5t164 319.5q44 74 117.5 189t120.5 191.5t94 169t77 182.5q20 54 38 76q18 21 46 21h1q31 0 31 -49q0 -30 -5 -48q-32 -126 -182 -392q71 41 180 104.5t176 101.5t143.5 77t147.5 69q4 0 12 2t12 2q52 0 52 -56v-12q-16 -34 -68 -51 q-169 -59 -315 -145q-47 -26 -142 -95t-127 -90q-36 -198 -55 -326.5t-29 -273.5q8 -117 40 -127q42 0 87.5 46t105 126t75.5 96q16 8 20 8q28 0 29 -32q-1 -22 -25 -64q-52 -89 -90.5 -146.5t-96.5 -105.5t-126 -53q-80 8 -105.5 77.5t-29.5 174.5q2 128 31 289.5t73 359.5 l-4 4q-25 -50 -123.5 -217t-144.5 -248t-100 -195q-55 -114 -72 -192q-10 -54 -23 -83t-49 -29q-23 0 -38 18q-15 20 -15 54z" />
<glyph unicode="L" horiz-adv-x="667" d="M-80 112q0 18 8 48q32 100 123 288q82 166 260.5 423t344.5 473q41 57 74 57h1q20 -1 33 -13q20 -7 20 -32q0 -9 -8 -25q-42 -69 -90 -138t-142 -197.5t-157 -218t-111 -165.5q-172 -264 -216 -440q159 47 233.5 65.5t158.5 18.5q80 0 80 -47q0 -61 -71 -69q-8 4 -29 4 h-32q-49 0 -95 -14t-114.5 -42t-112.5 -41.5t-90 -13.5q-28 0 -48 22q-20 21 -20 57z" />
<glyph unicode="M" horiz-adv-x="1229" d="M-92 -43q0 8 4 24t11 36t9 30q60 140 123 266.5t139 260.5t154 253t168 238q34 44 96 126.5t104 133.5t93 95q25 28 63 28q28 0 44 -20q16 -22 16 -52q0 -18 -8 -53q-20 -49 -123 -247.5t-169 -358t-87 -301.5l4 -4q28 39 90 128.5t121.5 176.5t119 175t107.5 156 q215 304 321 400q40 37 88 37q26 0 41 -15.5t15 -37.5q-6 -49 -52 -138.5t-126 -225.5t-102 -184q-57 -118 -116.5 -256t-105 -272t-53.5 -216q0 -10 3 -32t3 -40q0 -33 -19.5 -60.5t-55.5 -27.5q-27 2 -41.5 35t-14.5 69q0 158 117 440q59 131 105 223.5t91 176.5t87.5 158 t99.5 174l-4 4q-81 -82 -171 -200.5t-162 -225.5t-164.5 -250.5t-129.5 -196.5q-87 -123 -153 -123q-24 0 -44.5 26t-23.5 70q4 12 4 25q10 104 40 208.5t71.5 198t94 194.5t105.5 202l-4 4q-109 -110 -187 -234t-212 -370q-231 -428 -248 -472q-38 -98 -66 -147t-82 -49 q-28 0 -28 37z" />
<glyph unicode="N" horiz-adv-x="1075" d="M-43 24q1 22 15 72q16 46 39 101t51 114q26 59 42 93q52 104 135.5 249t177 296t162.5 255t101 140q10 12 24 27t27 30q37 19 61 19q44 0 44 -36q0 -12 -8 -36q-39 -102 -73 -235.5t-59.5 -276t-41.5 -282.5t-17 -234q4 -30 4 -84h2q258 599 557 1136q32 60 69 88.5 t62 28.5q29 0 29 -29q0 -30 -33 -80q-66 -100 -131.5 -211.5t-132.5 -236t-123 -236.5q-62 -128 -98.5 -220t-77 -208t-56.5 -156q-20 -50 -52 -79.5t-64 -32.5q-40 0 -58 31t-18 100q2 293 47 556t93 462l-4 4q-290 -348 -512 -930q-6 -14 -21 -70.5t-31 -92.5t-41 -56 q-21 -24 -55 -24q-35 10 -35 44z" />
<glyph unicode="O" horiz-adv-x="964" d="M28 180q0 172 97 384.5t252 412.5t323 336q-37 -4 -59 -14t-77.5 -38.5t-84.5 -36.5q-18 0 -26.5 6.5t-17 20t-11.5 17.5q6 28 20 40q29 32 119.5 70t176.5 54q24 4 75 4q85 0 153 -37t106 -103.5t38 -150.5q0 -195 -154 -449t-338 -456q-110 -114 -209 -182t-183 -78 q-182 0 -200 200zM144 236q6 -128 100 -128q89 0 212 113t238 265q114 154 178 270q46 87 80.5 195.5t34.5 188.5t-46.5 131.5t-129.5 51.5q-6 0 -25 -1t-30 -1q16 -10 16 -33q0 -13 -9 -26.5t-28 -33.5t-39 -40q-34 -34 -84 -89.5t-72 -78.5q-176 -200 -285 -422t-111 -362 z" />
<glyph unicode="P" horiz-adv-x="952" d="M12 47q18 74 42 141.5t53 135.5t66 147t71 149q-36 24 -44 68q0 47 64 47h39q18 35 44.5 86t56.5 109t57 114.5t43 100.5q-27 -5 -113 -49q-26 8 -47 49q8 31 32 58.5t55 48t67 38.5q36 19 70 37q4 12 10 33t12 34.5t18 23.5t29 10q23 0 37 -15t14 -37q102 34 205 35 q117 0 187 -61q69 -60 69 -174q0 -109 -61.5 -216.5t-164.5 -194.5t-226 -137t-241 -52q-60 6 -100 12q-18 -46 -72.5 -166t-88 -198t-60.5 -156q-14 -48 -27.5 -68t-39.5 -20q-20 0 -36 18t-20 49zM412 704q18 -3 42 -6.5t38 -5.5q111 2 220.5 58.5t194.5 142t129 172.5 q30 59 31 111q0 62 -52.5 93t-121.5 31q-109 0 -241 -67q-36 -78 -53.5 -117t-48 -106.5t-66.5 -148t-72 -157.5z" />
<glyph unicode="Q" horiz-adv-x="964" d="M28 180q0 172 97 384.5t253 412.5q154 200 322 336q-68 -7 -160 -61q-53 -28 -65 -28q-25 0 -43 28q0 4 -8 20q8 24 20 36q29 32 119.5 70t176.5 54q24 4 75 4q87 0 154.5 -38t104.5 -106q38 -68 38 -152q0 -148 -93 -333t-226 -357t-257 -294q10 -42 28 -113t46 -129 t72 -95.5t106 -37.5q58 1 105 27q33 28 47 28q15 0 24 -12t9 -29q0 -66 -80.5 -102.5t-152.5 -36.5q-91 6 -150.5 71t-89.5 141t-68 200q-73 -44 -121.5 -67t-101.5 -25q-66 0 -120.5 51t-60.5 153zM152 232q0 -116 88 -124q76 6 160 76q-22 172 -124 172q-42 0 -116 -53 q-2 -11 -4 -35t-4 -36zM188 416q72 40 136 40q122 0 180 -176q118 107 206 227q88 121 162 249q118 224 119 380q0 80 -48.5 133.5t-131.5 53.5q-6 0 -25.5 -1t-29.5 -1q16 -10 16 -33q0 -13 -9 -26.5t-28 -33.5t-39 -40q-88 -87 -165.5 -176t-144 -184t-118.5 -200.5 t-80 -211.5z" />
<glyph unicode="R" horiz-adv-x="952" d="M-8 56q0 28 4 40q84 238 268 568q-5 13 -16 63q0 34 15 56t40 22q18 -1 41 -9q176 290 215 408q-28 -12 -51 -24q-12 0 -24 -4q-32 8 -32 40q0 60 172 140q7 42 25.5 67t42.5 25q34 0 64 -39q98 31 168 31q75 0 134 -31t92.5 -88t33.5 -129q0 -99 -58 -194.5 t-161.5 -171.5t-237 -120t-277.5 -44q-36 0 -54 2q14 -62 106 -252t162 -320q20 -34 20 -51q0 -22 -22 -35.5t-46 -13.5q-34 0 -48 36q-31 56 -72.5 144t-93.5 201.5t-82 175.5q-12 -31 -68.5 -155t-94 -209t-45.5 -113q-18 -72 -65 -72q-55 0 -55 56zM448 772q16 -2 48 -2 q110 0 220 41.5t196 110.5t136 149q36 64 36 121q0 56 -41 93.5t-115 37.5h-3q-99 0 -221 -63q-48 -80 -256 -488z" />
<glyph unicode="S" horiz-adv-x="848" d="M-16 264q0 58 26 110t72 83t106 31q21 0 36.5 -13t15.5 -35t-17 -34t-47.5 -23t-40.5 -19q-31 -28 -39 -92q16 -127 180 -141q296 40 296 217q0 54 -25 109t-63 109t-76 106q-66 100 -72 217q6 274 372 483q142 68 252 68q68 0 116 -37t48 -103q0 -94 -96 -204 q-168 -178 -381 -248l-26 12t-21 15t-8 24q0 43 84 74q92 30 173.5 89.5t131.5 125.5q27 46 27 88q0 64 -68 64q-24 0 -100 -19q-77 -25 -160 -81t-145.5 -136t-78.5 -172q0 -24 -4 -39q5 -86 54.5 -166.5t111.5 -176.5t78 -173q0 -114 -68 -192t-163 -115t-172 -37 q-106 0 -175.5 32.5t-101.5 84.5t-32 114z" />
<glyph unicode="T" horiz-adv-x="977" d="M152 43q0 36 16 88q32 95 75 193t111 228t171.5 309t250.5 423q-259 -36 -440 -100q-30 6 -39 15t-25 38q6 34 34 54t65 31.5t89 20.5t64 13q166 43 321 64.5t278 28.5t229 7q67 0 97.5 -8t30.5 -39q0 -34 -20 -46q-20 -11 -68 -15q-58 -6 -178 -13.5t-200 -13 t-146 -13.5q24 -12 25 -36q0 -28 -49 -92q-84 -140 -166 -278.5t-150 -262.5t-130 -263.5t-105 -279.5q-4 -12 -15.5 -53t-23.5 -58.5t-35 -17.5q-28 0 -47.5 22.5t-19.5 53.5z" />
<glyph unicode="U" horiz-adv-x="1124" d="M24 176q8 144 88 330.5t192 367.5t226 325.5t182 201.5q44 31 64 31q16 0 35 -17q8 -13 8 -31q-1 -40 -27 -63q-86 -89 -203 -230t-193 -267q-58 -94 -106 -189t-81 -175t-52 -149t-22 -115q5 -71 48 -71h1q26 0 63 33t71 74.5t138 171.5q46 60 97 122.5t113 140 t106 134.5q182 238 273 351.5t188 211.5q23 32 59 32q52 0 52 -48q0 -25 -36 -76q-82 -103 -174.5 -267.5t-176.5 -351.5t-132.5 -337t-48.5 -228v-37q0 -51 -45 -51q-3 0 -12 2t-11 2q-40 20 -40 112q4 78 50 218.5t117.5 298t145.5 283.5l-4 4q-42 -50 -157.5 -204 t-184 -245.5t-156.5 -201t-147 -169.5q-113 -112 -197 -112q-62 0 -86.5 56t-24.5 132z" />
<glyph unicode="V" horiz-adv-x="897" d="M148 112q6 162 32 328t70 329t104 324t130 299q21 40 65 40q36 0 47 -17q0 -1 2 -8t2 -15q0 -26 -12 -56q-53 -140 -103 -274t-99.5 -289t-84.5 -325t-35 -323q0 -10 1 -24.5t1 -28.5q77 128 192 321t210.5 347t203.5 312q110 160 222 300q39 49 75 49h1q36 0 36 -41 q0 -42 -40 -92q-106 -142 -219 -303t-218.5 -323t-198 -316t-164.5 -289q-33 -64 -54 -88.5t-54 -24.5q-112 0 -112 188z" />
<glyph unicode="W" horiz-adv-x="1204" d="M43 51q2 70 27.5 165.5t45.5 168.5q37 130 80.5 251t100 264t106.5 268q51 124 81 204q24 60 75 60q49 0 49 -52q-4 -74 -33 -145.5t-131.5 -304t-166 -415.5t-97.5 -386l4 -4q36 52 92 138.5t130 205.5t129 209q55 88 117 190q54 76 108 76q41 0 41 -32q-1 -18 -13 -44 q-70 -146 -113 -324q-43 -176 -47 -312q8 -79 15 -103q40 47 133 232.5t198.5 397t211.5 390.5t206 287q39 49 78 49h2q18 0 31 -9.5t13 -27.5q0 -22 -36 -72q-113 -138 -215.5 -304t-191.5 -337.5t-188 -377t-125 -257.5q-36 -74 -68 -104q-34 -29 -80 -29q-54 4 -78 48 q-23 45 -26 141q0 168 51 376l-4 4q-93 -138 -207 -344q-49 -82 -88.5 -141t-74.5 -93t-69 -34q-66 12 -73 127z" />
<glyph unicode="X" horiz-adv-x="927" d="M-172 28q0 18 8 32q29 52 136.5 184.5t242.5 284.5t260 282q0 112 -8.5 231t-22.5 213.5t-32 140.5q-16 30 -16 40q0 21 18 35t38 14h2q43 0 58 -53q29 -99 48.5 -244.5t27.5 -255.5q19 18 98 95t153.5 146.5t153 136t152.5 114.5q33 20 39 20q18 0 32 -18q13 -20 13 -39 q0 -49 -65 -95q-70 -54 -140 -116t-144 -132t-150.5 -143t-133.5 -125q6 -548 112 -809q8 -21 9 -35q0 -12 -3 -20l-2 -8q-16 -38 -60 -39h-1q-47 0 -71 63q-16 52 -36 180t-36 286t-20 270q-88 -95 -152 -165t-124.5 -137.5t-126 -146.5t-93.5 -119q-4 -5 -25 -43.5 t-40 -57.5t-43 -19q-45 0 -52 32q-4 4 -4 20z" />
<glyph unicode="Y" horiz-adv-x="893" d="M144 592q4 16 4 36q8 78 59 188t130 223.5t170 209t173 143.5q40 22 72 23q19 0 31.5 -10.5t12.5 -28.5q0 -42 -71 -88q-134 -85 -238.5 -218.5t-161.5 -263.5t-57 -198q13 -26 35 -32q19 4 61 24q67 33 166.5 120.5t200.5 203.5q60 69 105 126.5t138 178t142 180.5 q56 67 92 67q20 0 34 -18.5t14 -42.5q0 -43 -36 -88q-157 -187 -317 -428.5t-284.5 -478t-182.5 -412.5q-30 -88 -80 -88q-47 0 -53 52q26 133 85.5 266.5t127.5 248.5t176 281l-4 4q-22 -20 -133 -128q-111 -106 -168 -144q-70 -50 -135 -56q-102 22 -108 148z" />
<glyph unicode="Z" horiz-adv-x="831" d="M-116 121q0 36 16 68.5t47 74.5t73 100q73 98 199.5 240t259.5 280t277 273t240 215q-52 -7 -139 -17.5t-169 -19.5t-160 -18q-4 4 -16 4h-3q-97 0 -118 67q17 56 53 56h4q10 0 24 -6q14 -4 20 -6q18 -4 84 -12q95 3 217.5 19.5t218.5 36.5q78 8 92 9h3q89 0 89 -61 q0 -28 -43 -76q-172 -134 -364.5 -315.5t-362.5 -364t-285 -327t-145 -212.5q90 6 157 27.5t205 73t218 67.5q12 1 28 3.5t20 2.5q24 0 38 -15.5t14 -39.5q0 -30 -24 -42t-72 -22q-60 -9 -126.5 -30t-180 -63.5t-170.5 -59.5t-103 -19q-52 4 -84 32t-32 77z" />
<glyph unicode="[" horiz-adv-x="819" d="M148 -164q8 25 8 35q73 322 184.5 637.5t255.5 611.5q20 46 55 127.5t59 132.5t42 80q40 60 76 60q44 0 108 -17q72 7 129 41q15 12 31 12q20 0 34.5 -21.5t14.5 -41.5q0 -39 -33 -57q-82 -42 -228 -52l-56 8q-32 -82 -130 -306.5t-173 -409t-142 -386t-103 -382.5 q112 92 208 92q66 0 65 -43q0 -49 -49 -49q-80 0 -207 -127q-44 -45 -82 -45q-55 0 -67 100z" />
<glyph unicode="]" horiz-adv-x="819" d="M-164 -205q0 41 33 57q80 42 219 52q74 -8 64 -8q29 72 126.5 297t176.5 418t145 392t100 377q-92 -78 -212 -96q-60 7 -60 47q0 53 47 53q46 0 105.5 40t103.5 84q45 44 76 44q33 0 48.5 -35t15.5 -73v-29q-66 -294 -177 -601.5t-262 -645.5q-15 -30 -57.5 -125 t-62.5 -138t-42 -77q-16 -32 -34.5 -46t-44.5 -14q-18 0 -55.5 7.5t-51.5 9.5q-62 -6 -121 -41q-20 -12 -32 -12q-22 0 -35 20t-13 43z" />
<glyph unicode="_" horiz-adv-x="1024" d="M0 -131h1024v-117h-1024v117z" />
<glyph unicode="`" horiz-adv-x="528" d="M264 1067q8 25 8 21q16 16 35 16q22 0 41.5 -17t40.5 -47l27 -36q6 -10 34.5 -44t43 -57.5t14.5 -46.5q0 -25 -39 -37q-26 6 -47.5 27.5t-49.5 59.5q-28 36 -36 46q-31 38 -43 64q-18 27 -29 51z" />
<glyph unicode="a" horiz-adv-x="559" d="M0 213q0 74 39 175.5t105 191.5q64 90 136 137q76 43 132 43q48 0 76 -23t28 -65q0 -16 -16 -56q12 -18 12 -40q0 -30 -29 -81.5t-35 -66.5q-57 -108 -57 -185q0 -58 15.5 -79.5t45.5 -38.5q32 -10 32 -49q0 -37 -52 -43q-11 4 -31.5 9.5t-34.5 12.5t-26 25 q-36 42 -41 112q8 42 8 60l-4 4q-42 -88 -94.5 -134t-104.5 -50q-104 11 -104 141zM100 248q6 -50 31 -56q72 0 162 164q33 65 58.5 115.5t47.5 85.5t41 47q-22 43 -63 43q-42 0 -77 -28q-34 -29 -77 -79q-40 -60 -80 -147q-41 -87 -43 -145z" />
<glyph unicode="b" horiz-adv-x="604" d="M-24 92q0 18 20 68q26 56 81 162.5t146.5 283t160 312.5t136.5 282q25 57 57 95.5t56 48.5h10q22 0 37.5 -20t15.5 -48q0 -11 -8 -29q-25 -37 -99.5 -161.5t-145.5 -247.5t-111 -197l4 -4q86 75 152 75q47 0 73.5 -34t26.5 -82q0 -74 -30.5 -153t-80 -150.5 t-105.5 -128.5q-97 -94 -192 -100q-63 6 -100 48q-1 -1 -16 -36.5t-31 -38.5q-21 0 -39 15.5t-18 39.5zM121 213q29 -39 71 -45q78 6 148 104q54 70 94.5 150t40.5 131q0 47 -39 47q-66 0 -116 -57t-105 -147q-46 -76 -94 -183z" />
<glyph unicode="c" horiz-adv-x="592" d="M-4 196q0 62 28 144q45 140 195 293q119 102 189 102q84 0 84 -92q0 -35 -20 -84t-52 -86t-68 -41q-18 8 -16 8q-16 16 -16 29q6 10 31.5 42.5t38.5 54.5q14 20 14 42q0 20 -8 20q-4 4 -11 5q-28 0 -83 -52.5t-107 -127.5t-74 -141q-15 -34 -21 -76q4 -8 4 -21 q0 -51 64 -59q154 52 284 221q36 43 56 43q11 0 17.5 -16t6.5 -27q0 -22 -12 -33q-180 -278 -360 -288q-72 0 -116.5 40t-47.5 100z" />
<glyph unicode="d" horiz-adv-x="563" d="M0 232q0 98 50 208t126 193q42 40 93 66t99 26q54 -1 84 -25l208 392q40 76 92 160q31 50 49.5 73t38.5 23q21 0 35 -19.5t14 -40.5q0 -22 -12.5 -45.5t-39.5 -63.5q-27 -41 -32 -51q-96 -163 -131 -223t-94.5 -176.5t-102.5 -225.5t-53 -196q0 -30 -4 -51q8 -88 41 -112 q15 -9 23 -23v-17q0 -8 -2.5 -16t-2.5 -12q-11 -22 -39 -29q-67 14 -89.5 72.5t-26.5 144.5q-112 -194 -216 -200q-108 10 -108 168zM92 260q7 -58 37 -68q57 0 151 152q26 42 50 89t49 100t37 79q-22 16 -60 16q-58 0 -116 -56q-40 -40 -73.5 -96.5t-53 -114t-21.5 -101.5z " />
<glyph unicode="e" horiz-adv-x="592" d="M-4 240q0 86 49 184t107 156q147 147 243 147h1h2q73 0 73 -73q0 -59 -46.5 -131.5t-96.5 -114.5q-116 -98 -224 -124q0 -94 101 -100q86 10 145.5 56.5t153.5 144.5q9 9 16.5 17t16.5 15t18 7q12 0 21 -10q8 -8 8 -18q0 -4 -2 -9.5t-2 -9.5q-20 -49 -97.5 -121 t-179.5 -131q-67 -39 -151 -45q-156 12 -156 160zM129 368q50 14 85.5 38t84.5 73q67 68 73 109q0 32 -20 32q-34 0 -88 -52q-42 -40 -83.5 -99t-51.5 -101z" />
<glyph unicode="f" horiz-adv-x="553" d="M-140 -332q0 90 22 182t56 181.5t84 200.5q48 112 74 176q-4 0 -12 -4q-25 0 -33 36q26 78 129 140q291 571 457 747q69 84 115 84q40 0 40 -39l-18 -32q-8 -16 -18 -32q-105 -120 -221.5 -291t-206.5 -349q153 59 225 59h2q48 0 86.5 -17.5t38.5 -62.5q0 -18 -8.5 -25.5 t-25 -12.5t-22.5 -9q-18 4 -52 20.5t-56 16.5q-64 0 -133 -27.5t-119 -69.5q66 -22 94 -94q29 -74 29 -170q0 -90 -21.5 -186t-58 -187t-84.5 -179q-56 -106 -122.5 -167t-124.5 -61q-54 0 -84 39q-32 40 -32 133zM-37 -297q0 -72 41 -88h1q38 0 87 61q93 130 152 292 t59 308t-84 168q-25 -52 -176 -420q-80 -208 -80 -321z" />
<glyph unicode="g" horiz-adv-x="659" d="M-293 -396q0 86 47 158.5t120 128.5t124.5 84t193.5 101q24 47 41.5 85.5t30.5 66.5l-4 4q-85 -108 -180 -116q-84 11 -84 107q0 138 144 332q84 113 167 167t145 58q92 0 93 -100q0 -48 -29 -112l16 -23q0 -2 2 -5q2 -4 2 -8q0 -8 -27.5 -46.5t-71 -112t-101.5 -193.5 l4 -8q184 136 280 312q10 20 36 28q8 0 16 -8t8 -25q-6 -32 -39 -87t-87.5 -119.5t-129 -126.5t-160.5 -109q-170 -378 -315 -506q-68 -51 -129 -51q-47 0 -80 32t-33 92zM-192 -372q0 -38 28 -44q36 0 78 41t80 99t61.5 100.5t73.5 132.5q-74 -28 -148.5 -89.5 t-123.5 -129.5t-49 -110zM100 256q0 -34 31 -41q108 24 201 205q-16 14 -20 24q2 10 27 31t48 47t45 74q8 26 8 41q0 27 -24 27q-36 0 -109 -64q-181 -181 -207 -344z" />
<glyph unicode="h" horiz-adv-x="676" d="M-24 104q0 42 17 90t42.5 97t48.5 94q25 50 96.5 198t100 208.5t60 126.5t67.5 139q8 16 41 95t63.5 124.5t75.5 67.5h12q22 0 37 -15.5t15 -40.5q0 -26 -24 -68q-56 -86 -129 -210.5t-149 -263.5q-74 -140 -114 -226l8 -4q40 48 126 114t134 82q12 4 32 5h2q50 0 50 -45 q0 -26 -12 -52q-50 -73 -75 -110t-55.5 -88t-51 -94.5t-22.5 -71.5q8 -33 32 -33q38 0 72 41q34 42 108 152q37 53 67 53h1q12 -1 12 -25q0 -8 -8 -40q-29 -60 -79 -130.5t-113.5 -124t-123.5 -53.5q-73 0 -80 96q4 12 4 27q14 70 48 142.5t116 201.5q-118 -60 -216 -187.5 t-144 -263.5q-20 -61 -55 -61h-1h-1q-35 0 -35 53z" />
<glyph unicode="i" horiz-adv-x="284" d="M-33 112q16 91 105 270.5t172 285.5q34 44 59 44q16 0 28.5 -10t12.5 -26q0 -18 -32 -60q-50 -68 -97 -156t-84 -177t-55 -154q-20 -65 -39 -73q1 0 -25 -9q-46 7 -45 65zM372 952q10 56 52 109q40 43 80 43q30 0 41 -16l2 -12q2 -11 2 -19q0 -49 -40.5 -96t-88.5 -53 q-31 8 -39 24q-1 4 -9 20z" />
<glyph unicode="j" horiz-adv-x="479" d="M-524 -424q6 66 50 142t114 142q49 48 114.5 91t130.5 76t99 49q21 43 87.5 186t108.5 229q42 87 92 173q37 57 75 57h1q8 0 14 -2l6 -2q28 -14 28 -37q0 -16 -19 -43q-66 -94 -121 -193.5t-131 -279.5q123 78 239 240q30 52 52 52q32 0 32 -36q0 -22 -12 -43 q-41 -80 -139.5 -174t-232.5 -166q-21 -40 -72 -145q-50 -106 -60 -124q-70 -146 -155 -234.5t-181 -88.5q-54 2 -87 40.5t-33 90.5zM-420 -404q0 -48 39 -48q35 0 71 30t78 94q80 114 156 287q-64 -22 -141 -81q-77 -60 -127 -122q-34 -40 -55 -85t-21 -75zM416 948 q8 53 53 109q38 43 76 43q23 0 39 -16l4 -12t4 -24q0 -48 -42 -93t-89 -52q-33 9 -37 21q-2 2 -4 10t-4 14z" />
<glyph unicode="k" horiz-adv-x="768" d="M-24 125q0 8 2 19.5t2 15.5q76 186 163.5 364t188 341.5t210.5 296.5q110 132 214 206q50 37 96 37q64 0 64 -84q0 -19 -8 -69q-20 -75 -104.5 -188.5t-226 -245.5t-317.5 -250l-80 -156l4 -4q182 224 396 288h20q18 0 29.5 -12t11.5 -28q0 -18 -15 -27q-14 -9 -46 -17 q-72 -24 -148 -76q-64 -154 -72 -264q0 -98 72 -104q58 3 132 62q72 59 140 161q28 41 52 41t24 -28q0 -5 -2 -10.5t-2 -8.5q-28 -61 -89 -138.5t-136 -133t-145 -55.5q-20 0 -42 6q-92 22 -100 184q0 32 25 172q-34 -32 -62.5 -67t-52 -69.5t-47 -74t-43.5 -69.5 q-42 -58 -72 -64q-2 2 -13.5 10t-17 16t-5.5 23zM336 717q176 121 284 243q74 82 132.5 169t58.5 127q-1 24 -19 24q-50 0 -147 -113t-190 -253.5t-119 -196.5z" />
<glyph unicode="l" horiz-adv-x="465" d="M24 172q7 49 17 88q58 198 180.5 442t258.5 437t232 253q40 28 76 28q34 0 55 -26t21 -63q0 -38 -20 -88q-37 -94 -98.5 -192t-145.5 -202.5t-181 -203.5t-204 -193l-19 -28q-39 -86 -65 -192q1 -20 29 -27q42 8 74.5 39.5t59.5 75.5q26 44 50 84q26 32 47 32 q10 0 17 -12q8 -10 8 -20q0 -14 -12 -40q-41 -74 -80.5 -130t-94.5 -101t-121 -53q-70 10 -84 92zM272 604q89 68 195.5 195t186.5 255q80 130 98 198v20q0 24 -25 24q-9 0 -55 -36q-36 -36 -85 -104t-103 -156t-109.5 -192t-102.5 -204z" />
<glyph unicode="m" horiz-adv-x="768" d="M-47 76v28q20 94 83.5 240t134.5 255t109 109q13 0 22.5 -13t9.5 -27q0 -4 -15 -40q-2 -4 -34.5 -52t-52.5 -81.5t-30 -58.5q176 176 260 211q15 9 29 9q16 0 31.5 -10t15.5 -26q0 -24 -14 -45t-44.5 -55t-42 -50t-15.5 -38q47 44 104.5 97t123.5 101t107 50q49 0 49 -47 q0 -29 -44 -74q-89 -94 -140 -165q-52 -72 -60 -158q0 -60 23 -96q33 -29 33 -56q0 -36 -51 -47q-91 16 -101 176q6 145 119 279l-4 4q-132 -104 -262 -312q-20 -48 -38.5 -76t-49.5 -28q-22 6 -27 18q-6 14 -6 42q16 80 140 321l-4 4q-86 -74 -150 -164.5t-111 -200.5 q-21 -67 -70 -67h-1q-26 0 -27 43z" />
<glyph unicode="n" horiz-adv-x="555" d="M-28 135q10 48 31 96.5t60 119.5t45 85q76 139 113 187.5t68 48.5q12 0 23.5 -16t11.5 -28q0 -4 -2 -11t-2 -9q-12 -28 -52.5 -87t-44.5 -73l9 -4q41 55 151.5 149.5t156.5 94.5q44 -5 44 -51q0 -16 -21 -45q-54 -77 -103 -148.5t-80 -143.5q-32 -72 -36 -156 q8 -56 20 -84q22 -42 23 -60q0 -37 -43 -37q-86 1 -100 181q4 16 4 36q18 146 104 276l-4 5q-144 -97 -248 -301q-28 -50 -42 -67q-16 -17 -42 -17q-20 0 -32 17.5t-12 41.5z" />
<glyph unicode="o" horiz-adv-x="499" d="M4 205q7 155 121 323q40 60 92.5 115t109 88t105.5 33q80 -6 80 -112q0 -88 -64 -232q-70 -146 -158 -249t-174 -103q-106 6 -112 137zM104 244q7 -30 15.5 -42t32.5 -18q42 3 88 50.5t80 129.5q-18 14 -27 27q0 12 39 59q38 46 59 86q29 46 29 72q0 38 -33 39 q-23 -1 -51 -23q-90 -66 -156 -172q-68 -104 -76 -208z" />
<glyph unicode="p" horiz-adv-x="567" d="M-307 -500q0 28 10.5 59t28.5 73q16 41 24 61q57 144 131 301.5t153.5 309.5t174.5 324q72 120 74 124q28 52 40.5 68t34.5 16q36 0 36 -48v-24q-14 -34 -72 -117l8 -4q70 57 139 57q93 0 93 -104q0 -78 -48 -180q-44 -90 -106 -166.5t-133 -124t-137 -49.5q-52 6 -93 40 q-42 -89 -80.5 -177.5t-77.5 -182.5t-85 -204q-8 -22 -17 -46t-21 -41.5t-30 -17.5t-32.5 16.5t-14.5 36.5zM92 205q24 -24 56 -29q65 3 144.5 84.5t127.5 191.5q41 80 41 111q0 45 -41 45q-36 0 -94 -48q-59 -50 -103 -116q-27 -41 -76 -134.5t-55 -104.5z" />
<glyph unicode="q" horiz-adv-x="549" d="M-4 -540q0 18 4 37t11 40t13 43q36 107 86 228.5t91 213.5t79 170l-4 4q-86 -116 -176 -124q-39 0 -63.5 35t-28.5 93q14 103 59 205.5t117 187.5t160 134q52 33 100 33q46 0 71 -32t25 -81v-27q28 -12 28 -28q0 -20 -10 -42t-28 -56t-22 -42q-28 -62 -115 -250 t-119.5 -261t-77 -181t-71.5 -196q-4 -11 -20.5 -67.5t-31.5 -76.5t-45 -20q-32 6 -32 60zM112 232q4 -4 12 -24t28 -24q92 12 180 188q0 8 -4 15q8 33 47 85.5t52 74t13 61.5q0 20 -9 34t-27 14q-22 0 -60 -36q-88 -72 -155 -178t-77 -210z" />
<glyph unicode="r" horiz-adv-x="659" d="M-76 76q0 21 16 59q29 87 74.5 195t98.5 202q53 96 102 140q14 8 28.5 16t28.5 16q14 0 29 -9t15 -23q0 -20 -13 -35q-12 -22 -47 -67t-53 -73.5t-27 -60.5v-4q42 52 141 140t175 136q44 22 53 23q14 0 26.5 -13.5t12.5 -29.5q0 -4 -2 -9t-2 -7q-12 -27 -47 -57 t-61.5 -54.5t-35.5 -56.5q0 -16 33 -25q24 14 74 37q49 22 69 33q30 19 40 19t19 -9t9 -19q0 -26 -28 -48q-128 -114 -240 -115q-78 0 -84 59q0 39 24 68l-4 4q-107 -90 -188.5 -200t-118.5 -196q-4 -6 -13.5 -24t-17.5 -29t-22 -18q-4 0 -21 -8q-43 6 -43 43z" />
<glyph unicode="s" horiz-adv-x="549" d="M-37 240q0 50 20.5 100t57.5 68h15q32 0 32 -21l-4 -7q-4 -8 -4 -16q-21 -48 -29 -104q4 -56 37.5 -88t71.5 -32q42 0 65 24t23 59q0 32 -13 60.5t-40 67.5t-35 53q-27 50 -31 104q0 75 53 139t134 100.5t159 36.5q56 0 94.5 -23t38.5 -73q0 -89 -74 -147.5t-170 -75.5 q-8 0 -16 -4q-41 9 -41 39q0 1 -0.5 2.5t-3.5 1.5q6 28 29 39t71.5 23t72.5 28.5t24 52.5q0 22 -14 33q-14 12 -34 12q-82 0 -145 -52.5t-75 -131.5q2 -37 16.5 -65.5t43.5 -73.5t44.5 -80.5t15.5 -73.5q0 -49 -29 -88.5t-76 -61.5t-95 -22q-90 0 -140 58q-49 59 -49 139z " />
<glyph unicode="t" horiz-adv-x="528" d="M60 219q4 64 20 126.5t42 125.5t57 125.5t61 124.5q-8 -2 -23 -4l-25 -5q-8 4 -20 5q-41 16 -41 47q5 38 61 45q60 13 124 27q122 196 176 256q32 32 48 32q18 0 31 -13t13 -31q0 -27 -19 -59t-53 -74t-43 -58q24 6 57.5 15t59.5 14.5t51 5.5q24 0 40.5 -12t18.5 -28 q0 -31 -20 -43.5t-60 -18.5q-40 -5 -48 -7q-34 -6 -97 -25.5t-86 -25.5q-76 -120 -129.5 -247t-87.5 -269q3 -26 11.5 -39t29.5 -25q58 10 94 48t79 110q42 70 70 98q8 4 19 4q10 0 21.5 -10t11.5 -22q0 -4 -8 -27q-65 -124 -142.5 -212.5t-177.5 -96.5q-56 6 -81 42 t-35 101z" />
<glyph unicode="u" horiz-adv-x="559" d="M-8 200q0 109 88 269q40 72 97 137.5t95 65.5q26 0 40 -20q0 -2 2 -7t2 -8q0 -34 -60 -88q-136 -164 -168 -326q8 -27 16 -31q8 0 12 -4q49 6 107 92q83 106 133 248q12 41 40 80t65 39q16 0 27.5 -15t11.5 -32q0 -33 -13 -64.5t-39 -76.5t-40.5 -74t-20.5 -61 q0 -20 -6 -52q3 -46 24 -83t47 -49q44 -17 44 -52q0 -51 -60 -51q-78 0 -108.5 59t-38.5 148q-56 -80 -98.5 -122t-106.5 -50q-92 16 -92 128z" />
<glyph unicode="v" horiz-adv-x="600" d="M-28 196q0 59 18.5 119t43 107t70.5 127q47 81 64 115q14 36 45 36t31 -40q0 -50 -20 -96.5t-63 -120.5t-63 -118.5t-22 -96.5q8 -28 20 -28q40 0 100 72t111 180q0 22 -4 40q4 72 35.5 142t93.5 70q39 0 39 -50q0 -85 -71 -202q6 0 17.5 -2t14.5 -2q64 11 117 64 q13 16 31 16q13 0 24.5 -12t11.5 -24q0 -60 -63 -98t-125 -42q-32 4 -72 20q-72 -125 -154.5 -212.5t-154.5 -87.5q-75 12 -75 124z" />
<glyph unicode="w" horiz-adv-x="815" d="M-4 180q0 74 34 152t81 145t112 147q35 32 52 46t41 14q40 0 40 -43v-17q-8 -15 -53 -61q-169 -169 -195 -303q7 -20 17 -20q35 0 98 63.5t149 172t89 112.5q28 37 59 53q2 0 9 1t11 1q18 0 33 -9.5t15 -21.5q0 -22 -25 -59q-9 -17 -46 -85.5t-61.5 -124t-31.5 -99.5 q0 -8 -4 -16q6 -22 28 -23q34 0 92 72.5t105 168.5t55 162q4 52 25 94t63 42q24 0 30 -11t6 -37q0 -102 -54 -209.5t-137 -222.5q-69 -92 -121 -140t-104 -52q-82 0 -88 104q6 99 61 196l-4 5q-80 -126 -167.5 -207.5t-141.5 -81.5q-72 0 -72 92z" />
<glyph unicode="x" horiz-adv-x="540" d="M-108 96q0 23 12 39.5t40 44.5q32 30 98 104t98 107q0 129 4 177q0 44 -4 60q3 9 6.5 38.5t14.5 44t35 14.5t38 -13.5t14 -35.5t-4 -76t-4 -84q82 90 156 164q44 51 69 51q35 0 35 -39q0 -28 -21 -40q-50 -42 -127.5 -124t-111.5 -137v-111q0 -64 36 -67q46 12 75 55.5 t64 103.5t73 80h12q28 0 28 -28q0 -18 -16 -47q-27 -50 -75.5 -117.5t-92.5 -115.5q-60 -64 -112 -64q-54 0 -69 44t-23 152q-94 -116 -156 -188q-33 -41 -64 -41q-12 0 -20 15q-8 14 -8 34z" />
<glyph unicode="y" horiz-adv-x="727" d="M-248 -396q8 80 66.5 157t171 157t282.5 174q12 36 34 83t45 91.5t53 105.5l-4 5q-30 -36 -70.5 -84.5t-81.5 -87.5t-88 -67q-46 -28 -96 -34q-68 6 -68 92q6 89 79 208.5t177 232.5q48 43 80 43q18 0 29 -13t11 -30t-24 -53q-24 -30 -87 -96t-97.5 -116t-42.5 -108 q2 -2 5 -10q4 -8 18 -14q34 6 79 49q61 48 116.5 107.5t102 119.5t107.5 144q35 52 71 52q18 0 29 -16t11 -36q0 -32 -19 -64q-44 -77 -82.5 -143.5t-74 -135.5t-56.5 -129q52 24 89 63t87 105t76 92q7 5 14.5 10.5t13.5 10.5q26 0 27 -33q0 -28 -18 -59 q-127 -204 -357 -330q-142 -328 -216 -434q-72 -96 -132 -134.5t-124 -41.5q-56 0 -96 38q-40 37 -40 113v16zM-135 -377q0 -75 51 -75q43 0 92 48q40 42 74 102t75 149.5t56 115.5q-110 -57 -185.5 -119.5t-115.5 -120.5t-47 -100z" />
<glyph unicode="z" horiz-adv-x="471" d="M-72 121q0 6 2 13.5t2 9.5q20 59 105.5 162t183 198.5t139.5 119.5l-4 4q-48 -6 -87 -10t-60 -6q-52 0 -81 10q-28 12 -28 50q0 31 29 45h11q14 0 27.5 -1.5t36.5 -4.5t48 -7q138 9 180 23q7 0 20.5 2t16.5 2q24 0 46.5 -10t24.5 -33q0 -38 -32 -64 q-192 -142 -279 -231.5t-145 -187.5q108 31 172 31q54 0 85 -16t31 -44q0 -22 -14 -36q-14 -15 -34 -15q-16 0 -51 5t-54 5q-48 0 -122 -29q-73 -28 -109 -34l-28 8t-23 13.5t-9 27.5z" />
<glyph unicode="{" horiz-adv-x="903" d="M248 624q0 28 30 47t110 49t147 62q67 30 137 82q64 48 101 96t65 99t70 129q65 112 156.5 192t203.5 122t240 42q48 -6 48 -36q0 -26 -21 -41t-40 -15q-9 2 -15.5 4t-20 3t-39.5 1q-70 0 -181 -55q-91 -57 -146 -120t-90.5 -138t-63 -136t-63.5 -103 q-120 -148 -415 -275q127 -127 127 -256q0 -54 -21.5 -102.5t-64 -120.5t-58.5 -113q-16 -53 -20 -84q6 -68 47 -108.5t109 -40.5q14 0 45 2q31 4 31 6q28 -6 28 -35q0 -53 -104 -53q-112 0 -192 46q-81 46 -81 154q4 51 15.5 82t64.5 154q2 4 29.5 57t38 82t10.5 57 q-1 38 -13 68q-13 32 -40.5 55t-75.5 52.5t-68 47t-20 41.5z" />
<glyph unicode="}" horiz-adv-x="903" d="M-408 -236q0 28 18 42t38 14q10 0 26 -4q18 -4 54 -4q82 0 176 59q120 72 176 150t103 186.5t85 156.5q62 72 159.5 140t256.5 137q-128 125 -131 256q6 52 26 96.5t59 111.5t59 116t20 102q0 64 -46.5 102.5t-111.5 38.5h-14q-53 0 -61 -8q-16 5 -20 17t-8 16 q14 55 107 55q110 0 193.5 -46t83.5 -150q-6 -56 -22 -99t-62 -137q-12 -25 -34.5 -69.5t-33 -73.5t-12.5 -61q11 -50 16 -64q14 -32 41.5 -54.5t76 -51.5t69 -47.5t20.5 -43.5q0 -28 -28.5 -46t-107.5 -47.5t-146 -61.5q-67 -30 -142 -84q-64 -48 -102.5 -96t-82.5 -130 t-54 -98q-90 -155 -237 -253.5t-315 -98.5h-48q-44 6 -44 32z" />
<glyph unicode="~" horiz-adv-x="651" d="M72 500q2 6 4 17t4 15q15 42 49.5 63t75.5 21q34 0 62.5 -13t72.5 -40t72 -40t59 -15q21 4 59 36t58 32q13 0 24 -12q12 -12 12 -28q0 -50 -48 -83t-101 -37q-36 5 -71.5 23.5t-81.5 46.5t-82 38q-24 8 -40 8t-27 -8t-25 -24.5t-22 -24.5q-10 -8 -22 -10q-17 5 -21.5 9 t-10.5 26z" />
<glyph unicode="&#xa2;" horiz-adv-x="651" d="M37 400q5 112 67 212q68 111 176 199.5t220 96.5q16 44 42 86t54 42q32 0 32 -28q0 -24 -19 -55.5t-41 -53.5q74 -28 73 -123q0 -62 -42.5 -123t-102.5 -73q-22 0 -27 32q6 22 33.5 54t39 49t11.5 49q0 45 -33 45q-73 -109 -272 -473q71 0 155 48t156 120q22 28 45 28 q12 0 20.5 -10t8.5 -22q-1 -22 -21 -44q-78 -94 -185 -153t-222 -59q-22 -40 -48.5 -98t-40.5 -78q-24 -40 -48 -40q-18 0 -25 32q4 8 4 20q8 22 38.5 80t45.5 96q-87 28 -94 144zM144 424q6 -52 40 -68q43 74 90.5 160.5t86 156.5t75.5 136q-76 -35 -143 -104t-107 -145.5 t-42 -135.5z" />
<glyph unicode="&#xa3;" horiz-adv-x="983" d="M-60 12q0 50 84 92q75 42 122.5 92.5t89.5 127t128 252.5q-20 -2 -67 -10t-78 -11q-71 7 -71 53q0 24 14 44t38 20q14 0 39 -4t37 -4q70 0 140 20q62 140 114.5 234t111 159t130.5 98t164 33q84 -6 84 -63q-6 -38 -47 -45q-25 8 -37 8q-102 0 -178 -61t-123 -143 t-90 -187q16 2 89.5 18.5t117.5 16.5q36 0 66 -18t30 -50q0 -4 -2 -14q-2 -8 -2 -10q-8 -16 -39 -23q-41 10 -80 10q-27 0 -58 -5.5t-89 -19.5q-56 -15 -86 -22q-40 -111 -109 -242q-69 -130 -135 -206q56 20 170 43.5t215 23.5q30 -3 51.5 -16.5t23.5 -34.5q0 -60 -71 -60 q-96 0 -186.5 -15t-167.5 -38t-137.5 -46t-112.5 -42q-4 0 -15 -2t-18 -2q-20 0 -40 14.5t-20 34.5z" />
<glyph unicode="&#xa5;" horiz-adv-x="893" d="M-20 289q0 18 20 30.5t41 12.5q39 -4 107 -4q92 8 172 28l44 60q-24 0 -59 -4.5t-77 -11.5t-56 -9q-76 7 -76 49q3 22 19.5 37t36.5 15q14 0 41 -4t43 -4q64 0 196 32l29 64q0 314 -76 548q3 22 27 36q4 0 10 2t10 2q36 0 56 -40q26 -58 48 -183.5t32 -248.5 q76 104 220.5 270t227.5 230q36 28 64 28q20 0 34 -18t14 -38q0 -17 -10 -33t-22 -23q-115 -91 -250.5 -245.5t-253.5 -317.5q61 10 100 10q53 0 81 -14.5t28 -36.5q0 -26 -10.5 -34.5t-34.5 -8.5q-156 -1 -240 -17l-47 -61q20 3 37.5 6t28.5 5t24 2q121 0 121 -52 q0 -42 -39 -49q-13 13 -109 13q-48 -6 -141 -23q-144 -202 -211 -332q-26 -53 -64 -53q-46 0 -52 45q1 2 4 14q2 13 8 21q32 64 67 116t109 160q-36 -9 -105 -14q-69 -4 -100 -10q-37 3 -52 14.5t-15 38.5z" />
<glyph unicode="&#xa8;" horiz-adv-x="688" d="M140 977q6 38 52 98q34 49 80 49q20 0 36 -15.5t16 -37.5q0 -46 -43 -91.5t-89 -51.5q-42 13 -52 49zM360 977q8 44 48 94q42 49 84 49q20 0 34 -14t14 -35q0 -46 -42 -91q-40 -46 -86 -52q-28 8 -37 15t-15 34z" />
<glyph unicode="&#xa9;" horiz-adv-x="1515" d="M112 688q0 192 96 356.5t260 260.5t356 96t356 -96t260 -260.5t96 -356.5t-96 -356t-260 -260t-356 -96t-356 96t-260 260t-96 356zM215 688q0 -165 81.5 -304.5t222.5 -221.5t305 -82q124 0 234.5 47t195 131.5t131.5 195.5t47 234q0 124 -47 235t-131 195t-195 131 t-235 47q-164 0 -305 -81.5t-222.5 -222t-81.5 -304.5zM440 684q6 186 109 293q116 119 303 119q112 0 280 -52v-208h-57q0 100 -58.5 158t-160.5 58q-136 0 -202 -101t-74 -247q27 -370 272 -380q94 18 155 54t97 110l45 -13q-34 -78 -104 -129q-71 -52 -165 -66 q-36 0 -61 -4q-198 8 -303 156q-70 106 -76 252z" />
<glyph unicode="&#xab;" horiz-adv-x="596" d="M84 440q6 88 121 180q22 26 51 27q20 0 40 -15.5t20 -35.5q0 -21 -12 -34.5t-39 -31.5t-40.5 -31.5t-15.5 -33.5q0 -23 6.5 -42t20.5 -45t20 -42v-20q0 -18 -10 -28t-28 -17t-26 -11q-46 9 -75 68q-29 58 -33 112zM320 444q6 82 116 176q26 26 56 27q19 0 40 -18.5 t21 -36.5q0 -19 -13 -32t-38 -29.5t-40.5 -31t-17.5 -34.5q0 -23 7 -42t21 -45t20 -42v-20q0 -17 -10 -27.5t-30 -18.5t-24 -10q-46 9 -76 70q-28 60 -32 114z" />
<glyph unicode="&#xad;" d="M0 396v116h524v-116h-524z" />
<glyph unicode="&#xae;" horiz-adv-x="1515" d="M112 688q0 192 96 356.5t260 260.5t356 96t356 -96t260 -260.5t96 -356.5t-96 -356t-260 -260t-356 -96t-356 96t-260 260t-96 356zM215 688q0 -165 81.5 -304.5t222.5 -221.5t305 -82q124 0 234.5 47t195 131.5t131.5 195.5t47 234q0 124 -47 235t-131 195t-195 131 t-235 47q-164 0 -305 -81.5t-222.5 -222t-81.5 -304.5zM492 320v32q30 2 49 4.5t27 17t8 58.5v572q0 50 -13 63t-71 13v28h336q272 0 272 -200q0 -82 -65 -136t-163 -64v-4q54 -10 87.5 -53t68.5 -119q35 -82 52.5 -115t42.5 -51t69 -18v-28h-104q-55 0 -86.5 24t-65.5 104 q-25 61 -48.5 116.5t-51.5 89.5t-68 34h-68v-268q0 -33 6 -47.5t22 -19.5t56 -5v-28h-292zM700 721q160 0 219 44t62 124q0 100 -65 143q-64 43 -168 43q-29 0 -38.5 -12.5t-9.5 -54.5v-287z" />
<glyph unicode="&#xb4;" horiz-adv-x="528" d="M264 860q10 36 34 69t63.5 76t58.5 70q14 29 45 29q14 0 26.5 -11t12.5 -26q0 -33 -22 -66.5t-51 -65t-63 -67.5q-33 -38 -69 -44q-18 10 -21 13t-14 23z" />
<glyph unicode="&#xb8;" horiz-adv-x="327" d="M-68 -396q0 8 4 9q18 17 41 39t37 46t14 50q0 18 -10 28t-30 21t-27.5 17t-7.5 18q0 20 39 60q10 12 88 108h55q-51 -48 -67 -80q0 -8 -8 -16q4 -14 22 -31.5t26 -29t8 -31.5q0 -60 -52.5 -128t-110.5 -96h-4q-17 0 -17 8v8z" />
<glyph unicode="&#xbb;" horiz-adv-x="596" d="M72 312q8 24 37 47.5t50 43t25 45.5q0 31 -23 73q-23 43 -26 51q0 12 -4 20q3 22 20 38.5t41 16.5q46 0 78.5 -66t32.5 -116q0 -60 -54 -126t-114 -79q-55 22 -63 52zM307 312q8 24 37 47.5t50.5 43t25.5 45.5q0 31 -22 72.5t-26 51.5q0 12 -4 20q3 22 19.5 38.5 t40.5 16.5q31 0 56.5 -31.5t40.5 -75.5t15 -71q0 -62 -56 -130.5t-116 -78.5q-12 5 -26 11.5t-22 14.5t-13 26z" />
<glyph unicode="&#x2c6;" horiz-adv-x="637" d="M223 908q15 48 75 86q62 38 114 38h20q121 -102 121 -168q0 -16 -12.5 -28.5t-28.5 -16.5q-20 4 -33 17.5t-28 36.5t-26 35t-29 12q-24 0 -67 -26t-61 -30q-14 4 -22 9t-13 15z" />
<glyph unicode="&#x2da;" horiz-adv-x="571" d="M289 889q7 76 79 159q62 68 124 68q34 0 57 -22t23 -54q0 -49 -33 -101t-83 -88.5t-96 -39.5q-35 6 -49.5 23.5t-21.5 54.5zM356 912q3 -8 5.5 -13t6.5 -9t13 -10q39 7 79 49.5t40 82.5q0 12 -10 22t-21 10q-31 0 -69 -44q-36 -46 -44 -88z" />
<glyph unicode="&#x2dc;" horiz-adv-x="819" d="M200 952q4 12 5 29q25 71 102 71q31 0 59 -12t68 -37.5t65 -37t54 -13.5q22 3 31 11.5t29.5 31.5t38.5 29h4q32 0 32 -41q-6 -50 -44 -83t-91 -40q-36 5 -64.5 21.5t-69.5 46.5t-71 45q-24 8 -36 8q-14 0 -24.5 -8.5t-22.5 -26t-18.5 -25t-18.5 -9.5q-4 4 -10.5 9 t-9.5 10q-4 5 -8 21z" />
<glyph unicode="&#x2000;" horiz-adv-x="782" />
<glyph unicode="&#x2001;" horiz-adv-x="1564" />
<glyph unicode="&#x2002;" horiz-adv-x="782" />
<glyph unicode="&#x2003;" horiz-adv-x="1564" />
<glyph unicode="&#x2004;" horiz-adv-x="521" />
<glyph unicode="&#x2005;" horiz-adv-x="391" />
<glyph unicode="&#x2006;" horiz-adv-x="260" />
<glyph unicode="&#x2007;" horiz-adv-x="260" />
<glyph unicode="&#x2008;" horiz-adv-x="195" />
<glyph unicode="&#x2009;" horiz-adv-x="312" />
<glyph unicode="&#x200a;" horiz-adv-x="86" />
<glyph unicode="&#x2010;" d="M0 396v116h524v-116h-524z" />
<glyph unicode="&#x2011;" d="M0 396v116h524v-116h-524z" />
<glyph unicode="&#x2012;" d="M0 396v116h524v-116h-524z" />
<glyph unicode="&#x2013;" horiz-adv-x="1024" d="M0 396v116h1024v-116h-1024z" />
<glyph unicode="&#x2014;" horiz-adv-x="2048" d="M0 391v117h2044h12v-117h-2044h-12z" />
<glyph unicode="&#x2018;" horiz-adv-x="315" d="M244 1075q4 13 4 29q16 88 83 194t144 162q22 16 45 16q15 0 27 -16t12 -32q-1 -26 -27 -52q-134 -114 -164 -284q-6 -38 -22.5 -56t-52.5 -24q-9 4 -21 4q-20 10 -28 59z" />
<glyph unicode="&#x2019;" horiz-adv-x="315" d="M352 1061q0 27 35 59q66 54 107 130q42 74 55 146q7 80 71 80q52 0 52 -67q-3 -77 -67.5 -183t-135.5 -169q-51 -45 -73 -45q-14 0 -29 17t-15 32z" />
<glyph unicode="&#x201c;" horiz-adv-x="461" d="M200 1080q4 78 66 183q64 105 134 169q45 44 71 44q16 0 30.5 -15t14.5 -33q0 -26 -37 -56q-66 -59 -105.5 -132.5t-49.5 -143.5q-8 -39 -25 -54.5t-55 -29.5q-44 8 -44 68zM444 1075q3 80 66 186q62 107 133 171q48 40 74 44q14 0 28.5 -16t14.5 -32q0 -28 -35 -60 q-127 -110 -157 -276q-8 -37 -23 -50.5t-53 -33.5q-48 7 -48 67z" />
<glyph unicode="&#x201d;" horiz-adv-x="487" d="M284 1061q0 23 36 55q129 118 155 276q15 74 61 84q64 0 64 -65q-3 -79 -65.5 -183.5t-134.5 -170.5q-48 -45 -72 -45q-18 0 -31 15t-13 34zM528 1057q0 27 35 59q125 108 158 276q11 80 75 80q48 0 48 -63q-2 -54 -33 -122t-77.5 -131t-90.5 -104q-43 -40 -71 -44 q-14 0 -29 17t-15 32z" />
<glyph unicode="&#x201e;" horiz-adv-x="487" d="M-293 -172q0 28 37 56q124 114 156 276q16 74 59 84q65 0 65 -64q-3 -80 -65.5 -185t-134.5 -171q-34 -28 -44 -35.5t-28 -7.5q-16 0 -30.5 14.5t-14.5 32.5zM-47 -176q1 29 35 60q132 114 156 276q14 80 75 80q49 0 49 -64q-3 -78 -65 -182q-61 -104 -135 -174 q-40 -38 -72 -43q-16 0 -29.5 15.5t-13.5 31.5z" />
<glyph unicode="&#x2022;" horiz-adv-x="616" d="M100 588q6 125 80 305q54 126 126 196t150 70q56 0 98 -31t62.5 -81.5t20.5 -106.5q0 -126 -74 -303q-33 -78 -79 -134.5t-101 -86.5t-111 -31q-40 3 -84 23q-82 41 -88 180z" />
<glyph unicode="&#x2026;" horiz-adv-x="2048" d="M268 51q8 57 21 89q10 35 31.5 55t43.5 20t35 -17.5t13 -41.5q0 -56 -25 -103t-75 -53q-28 16 -33 20t-11 31zM948 56q9 52 20 84q14 36 36 56q20 19 40 19q22 0 37 -18.5t15 -44.5q0 -55 -26 -100q-24 -46 -74 -52q-22 7 -23 8q-18 6 -25 48zM1632 56q8 50 20 84 q14 36 36 56q20 19 40 19q22 0 37 -18.5t15 -44.5q0 -55 -26 -100q-24 -46 -74 -52q-22 7 -23 8q-19 6 -25 48z" />
<glyph unicode="&#x202f;" horiz-adv-x="312" />
<glyph unicode="&#x2039;" horiz-adv-x="364" d="M84 440q6 88 121 180q22 26 51 27q20 0 40 -15.5t20 -35.5q0 -21 -12 -34.5t-39 -31.5t-40.5 -31.5t-15.5 -33.5q0 -23 6.5 -42t20.5 -45t20 -42v-20q0 -18 -10 -28t-28 -17t-26 -11q-46 9 -75 68q-29 58 -33 112z" />
<glyph unicode="&#x203a;" horiz-adv-x="364" d="M72 312q8 24 37 47.5t50 43t25 45.5q0 28 -23 71t-26 53q0 12 -4 16q5 55 65 55q44 0 75.5 -62.5t31.5 -111.5q0 -62 -54 -129t-114 -80q-55 18 -63 52z" />
<glyph unicode="&#x205f;" horiz-adv-x="391" />
<glyph unicode="&#x2122;" horiz-adv-x="2048" d="M176 1188v192h664v-192h-60q0 85 -35 107t-117 22h-12h-48v-641q0 -42 16 -55t59 -17q16 4 41 4v-55h-352v55q16 0 24 -4q56 4 72 15t16 53v645h-72q-83 0 -111.5 -25.5t-28.5 -103.5h-56zM1000 553v55q48 0 61.5 13t13.5 55v596v12q0 30 -8.5 36.5t-46.5 6.5v53h240 l233 -604l258 604h237v-53q-50 0 -60.5 -7.5t-10.5 -43.5v-580q0 -58 11.5 -71.5t59.5 -20.5v-51h-300v51q50 0 75 17t25 83v609h-4l-320 -760l-315 760h-4v-633q0 -32 6.5 -46t27.5 -20t68 -6v-55h-247z" />
<glyph unicode="&#x25fc;" horiz-adv-x="730" d="M0 0v730h730v-730h-730z" />
</font>
</defs>
</svg>
